<svg width="10" height="10" viewBox="0 0 10 10" fill="none" xmlns="http://www.w3.org/2000/svg">
<path d="M8 4.85C8.90233 4.37143 9.53488 3.58571 9.53488 2.85714C9.53488 1.24286 7.90698 0 5.81395 0H0V10H6.54884C8.49302 10 10 8.78571 10 7.29286C10 6.20714 9.2 5.27857 8 4.85ZM2.7907 1.78571H5.5814C6.35349 1.78571 6.97674 2.26429 6.97674 2.85714C6.97674 3.45 6.35349 3.92857 5.5814 3.92857H2.7907V1.78571ZM6.04651 8.21429H2.7907V6.07143H6.04651C6.8186 6.07143 7.44186 6.55 7.44186 7.14286C7.44186 7.73571 6.8186 8.21429 6.04651 8.21429Z" fill="white"/>
</svg>
