<svg width="307" height="104" viewBox="0 0 307 104" fill="none" xmlns="http://www.w3.org/2000/svg">
<rect width="307" height="104" fill="url(#paint0_linear_6_21)"/>
<path d="M216 68C224.837 68 232 60.8366 232 52C232 43.1634 224.837 36 216 36C207.163 36 200 43.1634 200 52C200 60.8366 207.163 68 216 68Z" fill="#5EA7FF"/>
<path fill-rule="evenodd" clip-rule="evenodd" d="M223.208 47.6785C223.208 47.6785 224.534 47.5741 225.067 47.1782C225.067 47.1782 224.939 47.6339 223.343 49.076C223.343 49.076 223.881 56.8569 215.694 58.7626C215.694 58.7626 211.542 59.6467 208.533 57.3913C208.533 57.3913 211.683 57.95 213.455 55.9963C213.455 55.9963 211.169 56.0193 210.446 53.6947C210.446 53.6947 211.309 53.8805 211.822 53.6482C211.822 53.6482 209.233 53.113 209.28 50.2997C209.28 50.2997 209.98 50.8114 210.609 50.7183C210.609 50.7183 208.277 48.7415 209.723 46.2776C209.723 46.2776 212.848 49.9609 216.721 49.7422C216.653 49.4785 216.617 49.2023 216.617 48.9168C216.617 47.0855 218.107 45.6 219.945 45.6C220.873 45.6 221.713 45.9795 222.317 46.591C222.76 46.5984 223.67 46.5198 224.58 45.8707C224.58 45.8711 224.632 46.5804 223.208 47.6785Z" fill="white"/>
<path d="M88 68C96.8366 68 104 60.8366 104 52C104 43.1634 96.8366 36 88 36C79.1634 36 72 43.1634 72 52C72 60.8366 79.1634 68 88 68Z" fill="#FF78C7"/>
<path d="M82.1333 46.9368V57.0632C82.1333 57.5076 82.4926 57.8667 82.9368 57.8667H93.0632C93.5076 57.8667 93.8667 57.5074 93.8667 57.0632V46.9368C93.8667 46.4924 93.5074 46.1333 93.0632 46.1333H82.9368C82.4924 46.1333 82.1333 46.4926 82.1333 46.9368ZM80 46.9368C80 45.3146 81.314 44 82.9368 44H93.0632C94.6854 44 96 45.314 96 46.9368V57.0632C96 58.6854 94.686 60 93.0632 60H82.9368C81.3146 60 80 58.686 80 57.0632V46.9368Z" fill="white"/>
<path d="M88.2667 55.7333C86.3521 55.7333 84.8 54.1813 84.8 52.2667C84.8 50.3521 86.3521 48.8 88.2667 48.8C90.1812 48.8 91.7333 50.3521 91.7333 52.2667C91.7333 54.1813 90.1812 55.7333 88.2667 55.7333ZM88.2667 53.6C89.003 53.6 89.6 53.003 89.6 52.2667C89.6 51.5303 89.003 50.9333 88.2667 50.9333C87.5303 50.9333 86.9333 51.5303 86.9333 52.2667C86.9333 53.003 87.5303 53.6 88.2667 53.6Z" fill="white"/>
<path d="M92 48.8C92.4418 48.8 92.8 48.4418 92.8 48C92.8 47.5582 92.4418 47.2 92 47.2C91.5582 47.2 91.2 47.5582 91.2 48C91.2 48.4418 91.5582 48.8 92 48.8Z" fill="white"/>
<path d="M152 68C160.837 68 168 60.8366 168 52C168 43.1634 160.837 36 152 36C143.163 36 136 43.1634 136 52C136 60.8366 143.163 68 152 68Z" fill="#5B68C0"/>
<path fill-rule="evenodd" clip-rule="evenodd" d="M154.155 45.0689C154.155 45.0689 151.78 44.9138 151.171 47.1728C151.171 47.1728 150.95 47.7654 150.981 49.2252L148.8 49.2316V51.1412L150.981 51.1349V58.9333H153.76V51.1412L155.965 51.1412V49.2252L153.76 49.2252V48.1846C153.76 47.5099 154.135 46.8646 155.232 46.8646H156.267V45.0689H154.155Z" fill="white"/>
<defs>
<linearGradient id="paint0_linear_6_21" x1="153.5" y1="0" x2="153.5" y2="104" gradientUnits="userSpaceOnUse">
<stop stop-color="#FF8A00"/>
<stop offset="0.503125" stop-color="#D9D9D9" stop-opacity="0"/>
<stop offset="1" stop-color="#7134A0"/>
</linearGradient>
</defs>
</svg>
